<svg xmlns="http://www.w3.org/2000/svg" width="45" height="45" viewBox="0 0 45 45">
  <g id="Icon_feather-plus-circle" data-name="Icon feather-plus-circle" transform="translate(-3 -3)">
    <g id="Path_15" data-name="Path 15" transform="translate(0 0)" fill="none" stroke-linecap="round" stroke-linejoin="round">
      <path d="M48,25.5A22.5,22.5,0,1,1,25.5,3,22.5,22.5,0,0,1,48,25.5Z" stroke="none"/>
      <path d="M 25.5 8 C 20.8255786895752 8 16.43094635009766 9.820323944091797 13.12563323974609 13.12563323974609 C 9.820323944091797 16.43094635009766 8 20.8255786895752 8 25.5 C 8 30.1744213104248 9.820323944091797 34.56905364990234 13.12563323974609 37.87436676025391 C 16.43094635009766 41.17967987060547 20.8255786895752 43 25.5 43 C 30.1744213104248 43 34.56905364990234 41.17967987060547 37.87436676025391 37.87436676025391 C 41.17967987060547 34.56905364990234 43 30.1744213104248 43 25.5 C 43 20.8255786895752 41.17967987060547 16.43094635009766 37.87436676025391 13.12563323974609 C 34.56905364990234 9.820323944091797 30.1744213104248 8 25.5 8 M 25.5 3 C 37.92641067504883 3 48 13.07358932495117 48 25.5 C 48 37.92641067504883 37.92641067504883 48 25.5 48 C 13.07358932495117 48 3 37.92641067504883 3 25.5 C 3 13.07358932495117 13.07358932495117 3 25.5 3 Z" stroke="none" fill="#fff"/>
    </g>
    <path id="Path_16" data-name="Path 16" d="M18,12V30.854" transform="translate(7.5 4.073)" fill="none" stroke="#fff" stroke-linecap="round" stroke-linejoin="round" stroke-width="5"/>
    <path id="Path_17" data-name="Path 17" d="M12,18H30.854" transform="translate(4.073 7.5)" fill="none" stroke="#fff" stroke-linecap="round" stroke-linejoin="round" stroke-width="5"/>
  </g>
</svg>
