<?xml version="1.0" encoding="UTF-8"?><svg id="Layer_1" xmlns="http://www.w3.org/2000/svg" width="83.55" height="74.28" viewBox="0 0 83.55 74.28"><path id="file-pen-solid" d="m0,9.28C0,4.16,4.16,0,9.28,0h23.22v18.57c0,2.56,2.07,4.64,4.63,4.64,0,0,0,0,.01,0h18.57v20.25l-13.74,13.74c-1.19,1.19-2.03,2.69-2.44,4.32l-2.19,8.72c-.33,1.34-.26,2.74.2,4.03H9.28c-5.13,0-9.28-4.16-9.28-9.28V9.28Zm37.14,9.28V0l18.57,18.57h-18.57Zm44.7,17.71c2.27,2.25,2.28,5.92.03,8.19,0,0-.02.02-.03.03l-4.26,4.26-10.29-10.3,4.26-4.26c2.27-2.26,5.94-2.26,8.21,0l2.07,2.09Zm-36.59,24.08l18.74-18.61,10.3,10.28-18.74,18.74c-.6.59-1.34,1.02-2.16,1.22l-8.72,2.19c-.79.19-1.62-.04-2.21-.61-.6-.62-.83-1.5-.61-2.34l2.18-8.6c.23-.84.65-1.62,1.22-2.28h0Z" fill="#a2b5b3"/></svg>