<svg id="Component_4_1" data-name="Component 4 – 1" xmlns="http://www.w3.org/2000/svg" width="70" height="70" viewBox="0 0 70 70">
  <circle id="Ellipse_2" data-name="Ellipse 2" cx="35" cy="35" r="35" fill="#c1c1c1"/>
  <path id="Icon_awesome-trash-alt" data-name="Icon awesome-trash-alt" d="M1.9,27.621a2.857,2.857,0,0,0,2.857,2.857H21.906a2.857,2.857,0,0,0,2.857-2.857v-20H1.9ZM18.1,12.382a.952.952,0,1,1,1.9,0V25.716a.952.952,0,1,1-1.9,0Zm-5.715,0a.952.952,0,1,1,1.9,0V25.716a.952.952,0,1,1-1.9,0Zm-5.715,0a.952.952,0,1,1,1.9,0V25.716a.952.952,0,1,1-1.9,0ZM25.716,1.9H18.573L18.013.792A1.429,1.429,0,0,0,16.733,0h-6.8A1.412,1.412,0,0,0,8.655.792L8.1,1.9H.952A.952.952,0,0,0,0,2.857v1.9a.952.952,0,0,0,.952.952H25.716a.952.952,0,0,0,.952-.952v-1.9A.952.952,0,0,0,25.716,1.9Z" transform="translate(21.666 19.761)" fill="#fff"/>
</svg>
