<svg id="Group_17" data-name="Group 17" xmlns="http://www.w3.org/2000/svg" width="77.474" height="61.048" viewBox="0 0 77.474 61.048">
  <path id="Path_77" data-name="Path 77" d="M421.627,582.422,419,574.494s2.889,2.889,2.889,5.26l-.519-5.483a8.367,8.367,0,0,1,1.334,5.038C422.556,582.347,421.627,582.422,421.627,582.422Z" transform="translate(-392.932 -528.901)" fill="#303030"/>
  <path id="Path_78" data-name="Path 78" d="M446.2,626.527c0,5.215-10.339,3.611-23,3.622s-22.849,1.633-22.854-3.582,10.335-6.358,23-6.369S446.194,621.312,446.2,626.527Z" transform="translate(-376.501 -569.348)" fill="#303030"/>
  <circle id="Ellipse_3" data-name="Ellipse 3" cx="7.514" cy="7.514" r="7.514" transform="translate(36.176 40.616)" fill="#0b846c"/>
  <path id="Path_91" data-name="Path 91" d="M395.759,234.025a5.387,5.387,0,0,1-4.922-3.2l-11.924-26.852a7.137,7.137,0,1,1,13.345-4.994l8.634,28.083a5.378,5.378,0,0,1-5.134,6.958Z" transform="translate(-357.086 -193.943)" fill="#0b846c"/>
  <g id="Group_18" data-name="Group 18" transform="translate(0 2.367)">
    <path id="Path_22" data-name="Path 22" d="M3.969,9.431A2.317,2.317,0,0,0,1.653,7.114,1.626,1.626,0,0,1,.006,5.684,1.571,1.571,0,0,1,1.571,3.971h.082A2.317,2.317,0,0,0,3.968,1.654,1.627,1.627,0,0,1,5.4.006,1.572,1.572,0,0,1,7.109,1.572v.082A2.316,2.316,0,0,0,9.424,3.97,1.626,1.626,0,0,1,11.071,5.4,1.571,1.571,0,0,1,9.507,7.113H9.425A2.316,2.316,0,0,0,7.109,9.43v.082A1.571,1.571,0,0,1,5.4,11.077a1.626,1.626,0,0,1-1.43-1.646Z" transform="matrix(-0.616, 0.788, -0.788, -0.616, 77.474, 6.824)" fill="#444"/>
    <path id="Path_25" data-name="Path 25" d="M.851,2.023a.5.5,0,0,0-.5-.5A.349.349,0,0,1,0,1.218.337.337,0,0,1,.337.852H.355a.5.5,0,0,0,.5-.5A.349.349,0,0,1,1.159,0,.343.343,0,0,1,1.3.018a.337.337,0,0,1,.119.071A.333.333,0,0,1,1.5.2a.339.339,0,0,1,.029.136V.355a.5.5,0,0,0,.5.5.348.348,0,0,1,.353.306.341.341,0,0,1-.017.138.335.335,0,0,1-.071.119.337.337,0,0,1-.248.109H2.021a.5.5,0,0,0-.5.5V2.04a.339.339,0,0,1-.029.136.333.333,0,0,1-.081.113A.337.337,0,0,1,1.3,2.36a.344.344,0,0,1-.138.017.349.349,0,0,1-.309-.353Z" transform="matrix(-0.616, 0.788, -0.788, -0.616, 14.271, 5.904)" fill="#444"/>
    <path id="Path_28" data-name="Path 28" d="M1.4,3.323a.815.815,0,0,0-.814-.815A.576.576,0,0,1,0,2.012a.55.55,0,0,1,.024-.228.556.556,0,0,1,.115-.2.562.562,0,0,1,.186-.135A.554.554,0,0,1,.552,1.4H.583A.814.814,0,0,0,1.4.585.575.575,0,0,1,1.894,0a.555.555,0,0,1,.229.024.555.555,0,0,1,.334.3A.556.556,0,0,1,2.5.552V.584a.814.814,0,0,0,.814.814.576.576,0,0,1,.582.5.554.554,0,0,1-.325.563.549.549,0,0,1-.224.048H3.324a.818.818,0,0,0-.817.818v.029A.554.554,0,0,1,1.9,3.9a.575.575,0,0,1-.5-.581Z" transform="matrix(-0.616, 0.788, -0.788, -0.616, 5.483, 21.468)" fill="#444"/>
    <path id="Path_29" data-name="Path 29" d="M2.181,5.178A1.268,1.268,0,0,0,.913,3.909.9.9,0,0,1,0,3.135a.864.864,0,0,1,.858-.953H.913A1.269,1.269,0,0,0,2.181.913.9.9,0,0,1,2.955,0a.864.864,0,0,1,.952.859V.913A1.27,1.27,0,0,0,5.175,2.182a.9.9,0,0,1,.908.774.864.864,0,0,1-.858.953H5.178A1.273,1.273,0,0,0,3.906,5.183v.046a.863.863,0,0,1-.952.858.9.9,0,0,1-.773-.909Z" transform="matrix(-0.616, 0.788, -0.788, -0.616, 67.246, 37.758)" fill="#444"/>
    <path id="Path_30" data-name="Path 30" d="M2.593,6.155A1.51,1.51,0,0,0,1.084,4.647a1.065,1.065,0,0,1-1.078-.92A1.025,1.025,0,0,1,1.025,2.6h.058a1.51,1.51,0,0,0,1.509-1.51A1.067,1.067,0,0,1,3.513.005a1.026,1.026,0,0,1,1.131,1.02v.059A1.51,1.51,0,0,0,6.153,2.6a1.065,1.065,0,0,1,1.079.92,1.025,1.025,0,0,1-1.02,1.132H6.159A1.514,1.514,0,0,0,4.646,6.16v.053A1.025,1.025,0,0,1,3.515,7.234a1.066,1.066,0,0,1-.922-1.079Z" transform="matrix(-0.616, 0.788, -0.788, -0.616, 21.096, 47.012)" fill="#444"/>
  </g>
</svg>
