<?xml version="1.0" encoding="UTF-8"?><svg id="Layer_1" xmlns="http://www.w3.org/2000/svg" width="97.49" height="77.96" viewBox="0 0 97.49 77.96"><path id="code-solid" d="m63.19,6.22l-19.5,68.25c-.77,2.58-3.48,4.06-6.07,3.29-2.55-.76-4.02-3.41-3.32-5.97L53.81,3.54c.74-2.59,3.44-4.09,6.03-3.35s4.09,3.44,3.35,6.03h0Zm15.81,12.28l17.06,17.06c1.9,1.9,1.9,4.98,0,6.88,0,0,0,0,0,0l-17.06,17.06c-1.9,1.9-4.98,1.9-6.89,0s-1.9-4.98,0-6.89h0l13.6-13.62-13.6-13.62c-1.9-1.9-1.9-4.99,0-6.89,1.9-1.9,4.99-1.9,6.89,0Zm-53.62,6.89l-13.61,13.62,13.61,13.62c1.9,1.9,1.9,4.98,0,6.89-1.9,1.9-4.98,1.9-6.89,0h0L1.43,42.45c-1.9-1.9-1.9-4.98,0-6.88,0,0,0,0,0,0l17.07-17.06c1.9-1.9,4.98-1.9,6.89,0s1.9,4.98,0,6.89h0Z" fill="#77807e"/></svg>