<?xml version="1.0" encoding="utf-8"?>
<!-- Generator: Adobe Illustrator 26.5.0, SVG Export Plug-In . SVG Version: 6.00 Build 0)  -->
<svg version="1.1" id="Layer_1" xmlns="http://www.w3.org/2000/svg" xmlns:xlink="http://www.w3.org/1999/xlink" x="0px" y="0px"
	 viewBox="0 0 877.99 860" style="enable-background:new 0 0 877.99 860;" xml:space="preserve">
<style type="text/css">
	.st0{fill:#FFFFFF;}
</style>
<path class="st0" d="M786.02,650h-70.3c-4.8,0-9.3,2.1-12.3,5.8c-7,8.5-14.5,16.7-22.4,24.5c-32.31,32.34-70.58,58.12-112.7,75.9
	c-43.63,18.43-90.53,27.88-137.9,27.8c-47.9,0-94.3-9.4-137.9-27.8c-42.12-17.78-80.39-43.56-112.7-75.9
	c-32.37-32.23-58.18-70.44-76-112.5c-18.5-43.6-27.8-89.9-27.8-137.8s9.4-94.2,27.8-137.8c17.8-42.1,43.4-80,76-112.5
	s70.5-58.1,112.7-75.9c43.6-18.4,90-27.8,137.9-27.8s94.3,9.3,137.9,27.8c42.2,17.8,80.1,43.4,112.7,75.9
	c7.9,7.9,15.3,16.1,22.4,24.5c3,3.7,7.6,5.8,12.3,5.8h70.3c6.3,0,10.2-7,6.7-12.3C716.02,78.5,581.82-0.4,429.32,0
	C189.72,0.6-2.38,195.1,0.02,434.4C2.42,669.9,194.22,860,430.42,860c152.1,0,285.7-78.8,362.3-197.7
	C796.12,657,792.32,650,786.02,650z M874.92,423.7l-141.9-112c-5.3-4.2-13-0.4-13,6.3v76h-314c-4.4,0-8,3.6-8,8v56c0,4.4,3.6,8,8,8
	h314v76c0,6.7,7.8,10.5,13,6.3l141.9-112c3.48-2.72,4.09-7.75,1.37-11.23C875.89,424.56,875.43,424.1,874.92,423.7L874.92,423.7z"/>
</svg>
