<?xml version="1.0" encoding="UTF-8"?><svg id="Layer_1" xmlns="http://www.w3.org/2000/svg" width="115.14" height="114.43" viewBox="0 0 115.14 114.43"><g id="Admin_icon"><g id="Icon_1"><g id="Group_14"><g id="Group_8"><g id="Group_7"><g id="Group_5"><path id="Path_9" d="m15.34,17.27c.74-1.18,14.06,1,24.64-2.82C52.17,10.1,61.98-.25,65.77,0c3.61.26,12.24,11.11,23.49,14.45,10.6,3.12,23.9-1.28,24.84,0,1.92,2.61,2.38,28.46-9.53,50.48s-38.11,37.65-38.11,37.65c0,0-28.63-16.32-41.42-37.65S13.75,19.78,15.34,17.27Z" fill="#ba9090"/></g></g></g></g></g><g id="Group_161"><circle id="Ellipse_1" cx="37.62" cy="66.48" r="19.39" fill="#bd9c9c"/><path id="Path_53" d="m37.5,83.54c20.72,0,37.5,10.27,37.5,22.92s-16.8,6.43-37.5,6.43S0,119.14,0,106.46s16.8-22.92,37.5-22.92Z" fill="#bd9c9c"/></g></g></svg>